<?xml version="1.0" standalone="no"?>
<!DOCTYPE svg PUBLIC "-//W3C//DTD SVG 20010904//EN"
 "http://www.w3.org/TR/2001/REC-SVG-20010904/DTD/svg10.dtd">
<svg version="1.0" xmlns="http://www.w3.org/2000/svg"
 width="265.000000pt" height="89.000000pt" viewBox="0 0 265.000000 89.000000"
 preserveAspectRatio="xMidYMid meet">

<g transform="translate(0.000000,89.000000) scale(0.100000,-0.100000)"
fill="#000000" stroke="none">
<path d="M1040 602 c-29 -15 -66 -39 -82 -54 -26 -24 -28 -31 -28 -102 0 -70
2 -79 26 -101 15 -14 31 -25 35 -25 5 0 9 50 9 110 l0 110 30 0 c28 0 30 -3
30 -36 0 -34 1 -35 33 -32 l32 3 3 67 c4 89 -12 99 -88 60z"/>
<path d="M110 545 c0 -23 3 -25 50 -25 l50 0 0 -101 c0 -98 0 -100 23 -97 21
3 22 8 25 101 l3 97 44 0 c41 0 45 2 45 25 l0 25 -120 0 -120 0 0 -25z"/>
<path d="M397 552 c-13 -14 -17 -39 -17 -109 0 -121 3 -123 143 -123 l107 0 0
25 0 25 -100 0 -100 0 0 25 0 25 100 0 100 0 0 25 0 25 -100 0 -100 0 0 25 0
25 100 0 100 0 0 25 0 25 -108 0 c-93 0 -111 -3 -125 -18z"/>
<path d="M667 552 c-13 -14 -17 -39 -17 -109 0 -121 3 -123 143 -123 l107 0 0
25 0 25 -100 0 -100 0 0 75 0 75 100 0 100 0 0 25 0 25 -108 0 c-93 0 -111 -3
-125 -18z"/>
<path d="M1190 460 l0 -110 -30 0 c-28 0 -30 3 -30 35 0 33 -2 35 -35 35 l-35
0 0 -59 c0 -107 13 -112 119 -49 l71 43 0 87 c0 75 -3 91 -20 108 -11 11 -24
20 -30 20 -6 0 -10 -43 -10 -110z"/>
<path d="M1487 552 c-13 -14 -17 -39 -17 -109 0 -121 3 -123 143 -123 l107 0
0 25 0 25 -100 0 -100 0 0 25 0 25 100 0 100 0 0 25 0 25 -100 0 -100 0 0 25
0 25 100 0 100 0 0 25 0 25 -108 0 c-93 0 -111 -3 -125 -18z"/>
<path d="M1757 552 c-13 -14 -17 -39 -17 -109 0 -121 3 -123 143 -123 l107 0
0 25 0 25 -100 0 -100 0 0 75 0 75 100 0 100 0 0 25 0 25 -108 0 c-93 0 -111
-3 -125 -18z"/>
<path d="M2032 558 c-8 -8 -12 -48 -12 -113 0 -65 4 -105 12 -113 15 -15 181
-16 209 -2 17 10 19 22 19 115 0 93 -2 105 -19 115 -28 14 -194 13 -209 -2z
m178 -113 l0 -75 -70 0 -70 0 0 75 0 75 70 0 70 0 0 -75z"/>
<path d="M2308 559 c-16 -9 -18 -26 -18 -124 l0 -115 25 0 25 0 0 100 0 100
25 0 25 0 0 -100 0 -100 25 0 25 0 0 100 0 100 25 0 25 0 0 -100 0 -100 25 0
25 0 0 103 c0 143 -4 147 -123 147 -51 0 -100 -5 -109 -11z"/>
</g>
</svg>
